<?xml version="1.0" encoding="utf-8"?>
<!-- Generator: Adobe Illustrator 26.0.3, SVG Export Plug-In . SVG Version: 6.00 Build 0)  -->
<svg version="1.1" id="Layer_1" xmlns="http://www.w3.org/2000/svg" xmlns:xlink="http://www.w3.org/1999/xlink" x="0px" y="0px"
	 viewBox="0 0 448 512" style="enable-background:new 0 0 448 512;" xml:space="preserve">
<style type="text/css">
	.st0{fill:#FFFFFF;}
</style>
<path class="st0" d="M156.8,411.8l31.2-31.2l-60-53.1l-52.3,52.3c-14.1,14-15.6,36.3-3.7,52.2l48,64c7.9,10.5,19.9,16,32,16
	c8.3,0,16.8-2.6,24-8c17.7-13.2,21.2-38.3,8-56L156.8,411.8z M224,159.1c44.2,0,80-35.8,80-79.1S268.3,0,224,0s-80,35.8-80,79.1
	S179.8,159.1,224,159.1z M408.7,145c-12.8-18.1-37.6-22.4-55.8-9.8l-40.6,28.5c-52.6,37-124.1,37-176.8,0l-40.6-28.5
	c-18-12.7-42.9-8.2-55.7,9.8c-12.6,18.1-8.3,43,9.8,55.8l40.6,28.5c12.1,8.4,25.1,15,38.4,20.9V288h192l0-37.7
	c13.2-5.9,26.2-12.5,38.3-21l40.6-28.5C417.1,188,421.4,163.1,408.7,145z M320,327.4l-60,53.1l31.2,31.2L264,448
	c-13.2,17.7-9.7,42.8,8,56c7.2,5.4,15.6,8,23.1,8c12.2,0,24.2-5.5,32-16l48-64c11.9-15.9,10.4-38.2-3.7-52.3L320,327.4z"/>
</svg>
