<?xml version="1.0" encoding="utf-8"?>
<!-- Generator: Adobe Illustrator 26.0.3, SVG Export Plug-In . SVG Version: 6.00 Build 0)  -->
<svg version="1.1" id="Layer_1" xmlns="http://www.w3.org/2000/svg" xmlns:xlink="http://www.w3.org/1999/xlink" x="0px" y="0px"
	 viewBox="0 0 512 512" style="enable-background:new 0 0 512 512;" xml:space="preserve">
<style type="text/css">
	.st0{fill:#E63947;}
</style>
<path class="st0" d="M0,256C0,114.6,114.6,0,256,0s256,114.6,256,256S397.4,512,256,512S0,397.4,0,256z M159.3,388.7
	c12.2-39.3,50.6-68.7,96.7-68.7s84.5,29.4,96.7,68.7c2.6,8.5,11.6,13.2,20,10.6c8.5-2.6,13.2-11.6,10.6-20
	c-16.5-53.2-67.5-92.2-127.3-92.2c-59.7,0-110.8,39-127.3,92.2c-2.6,8.4,2.1,17.4,10.6,20C147.7,401.9,156.7,397.2,159.3,388.7
	L159.3,388.7z M176.4,176c-17.7,0-32,14.3-32,32s14.3,32,32,32c17.6,0,32-14.3,32-32S194,176,176.4,176z M336.4,240
	c17.6,0,32-14.3,32-32s-14.4-32-32-32c-17.7,0-32,14.3-32,32S318.7,240,336.4,240z"/>
</svg>
