<?xml version="1.0" encoding="utf-8"?>
<!-- Generator: Adobe Illustrator 26.0.3, SVG Export Plug-In . SVG Version: 6.00 Build 0)  -->
<svg version="1.1" id="Layer_1" xmlns="http://www.w3.org/2000/svg" xmlns:xlink="http://www.w3.org/1999/xlink" x="0px" y="0px"
	 viewBox="0 0 512 512" style="enable-background:new 0 0 512 512;" xml:space="preserve">
<style type="text/css">
	.st0{fill:#E63947;}
</style>
<path class="st0" d="M511.4,20.7C499.8,59.5,477,132.5,450,208.5c7,2.1,13.4,4,18.6,5.6c4.6,1.4,8.4,4.8,10.1,9.1
	c1.9,4.5,1.6,9.5-0.6,13.8c-22.1,42.2-82.6,152.8-142.5,214.4c-1,1.1-2,2.5-3,3.5c-76,76.1-199.4,76.1-275.5,0.1
	c-76.1-76.1-76.1-199.5,0-275.7c1-1,2.4-2,3.5-3C122.1,116.5,232.5,56,274.1,33.8c4.2-2.2,9.2-2.5,13.6-0.6
	c4.5,1.9,7.9,5.6,9.2,10.1c1.6,5.1,3.5,11.6,5.6,18.6c75.9-27,148.9-49.8,187.6-61.2c5.8-1.8,11.9-0.3,16.1,4
	C511.5,8.8,512.1,15.1,511.4,20.7z M319.1,319.1c0-70.6-57.4-128-128-128c-70.8,0-128,57.4-128,128c0,70.8,57.2,128,128,128
	C262.6,448,319.1,390.8,319.1,319.1z M191.1,287.1c0,17.6-14.4,32-32,32c-17.8,0-32-14.4-32-32s14.2-32,32-32
	c8.5,0,16.6,3.4,22.6,9.4S191.1,279.5,191.1,287.1z M223.9,367.1c0,8.9-7.2,16-16,16c-8.9,0-16-7.1-16-16c0-8.9,7.1-16,16-16
	C216.7,351.1,223.9,359.1,223.9,367.1z"/>
</svg>
