<?xml version="1.0" encoding="utf-8"?>
<!-- Generator: Adobe Illustrator 26.0.3, SVG Export Plug-In . SVG Version: 6.00 Build 0)  -->
<svg version="1.1" id="Layer_1" xmlns="http://www.w3.org/2000/svg" xmlns:xlink="http://www.w3.org/1999/xlink" x="0px" y="0px"
	 viewBox="0 0 576 512" style="enable-background:new 0 0 576 512;" xml:space="preserve">
<style type="text/css">
	.st0{fill:#E63947;}
</style>
<path class="st0" d="M192.4,320c63.4,0,54.1-39.7,95.3-40c42.5,0.4,31.8,40,95.9,40c39.3,0,55.7-18.4,62.2-24.8L305.4,179.1
	c3.3-1.7,31.7-18.2,75.2-18.2c12.6,0,25.2,1.4,37.5,4.2l38.6,8.8c2.4,0.6,4.8,0.8,7.2,0.8c15.9,0,32-12.8,32-32
	c0-14.6-10-27.8-24.8-31.2l-38.6-8.8c-17.1-3.9-34.5-5.8-51.8-5.8c-120.1,0-177.4,85.9-178.1,88l-23.5,28.4
	c-21,28-31.7,60.5-34.1,94.4C157.5,315.4,174.3,320,192.4,320z M576,397c0-15.1-10.8-28.6-26.2-31.4c-48.5-8.9-45.5-29.5-69.6-29.5
	c-25,0-31.2,31.8-96.2,31.8c-48.6,0-72.7-22.1-73.4-22.6c-6.1-6.2-14.3-9.2-22.4-9.2c-24.8,0-31.6,31.8-96.2,31.8
	c-48.6,0-72.7-22-73.4-22.6c-6.1-6.2-14.3-9.2-22.5-9.2c-8.1,0-16.1,3-22.4,8.9C44.7,371.2,0,357.5,0,397
	c0,16.1,12.8,32.1,31.7,32.1c9.8,0,39.7-7.3,64.3-21.8c19.6,11.5,51.5,23.8,96.1,23.8s76.5-13.1,96-24.7
	c19.5,11.5,51.5,24.6,96,24.6c44.6,0,76.6-13.1,96.1-24.6c24.7,14.6,54.7,21.8,64.2,21.8C563.2,429.1,576,413.3,576,397z M95.1,224
	c35.3,0,64-28.6,64-64s-28.6-64-64-64s-64,28.7-64,64C31.1,195.3,60.7,224,95.1,224z"/>
</svg>
