<?xml version="1.0" encoding="utf-8"?>
<!-- Generator: Adobe Illustrator 26.0.3, SVG Export Plug-In . SVG Version: 6.00 Build 0)  -->
<svg version="1.1" id="Layer_1" xmlns="http://www.w3.org/2000/svg" xmlns:xlink="http://www.w3.org/1999/xlink" x="0px" y="0px"
	 viewBox="0 0 512 512" style="enable-background:new 0 0 512 512;" xml:space="preserve">
<style type="text/css">
	.st0{fill:#E63947;}
</style>
<path class="st0" d="M451.4,369.1C468.8,356,480,335.4,480,312c0-39.8-32.2-72-72-72h-14.1c13.4-11.8,22.1-28.8,22.1-48.9
	c0-35.2-28.8-63.1-64-63.1h-5.9c3.7-10.1,5.9-20.8,5.9-32.9c0-53-43-96-96-96c-5.2,0-10.2,0.8-15.1,1.5c9.4,14,15.1,30,15.1,46.5
	c0,44.2-35.8,80-80,80h-16c-35.2,0-64,28.8-64,63.1c0,19.2,8.8,36.2,22.1,48H104c-39.8,0.9-72,34.1-72,73.8
	c0,23.4,11.2,44,28.6,57.1C26.2,374.6,0,404.1,0,440c0,39.8,32.2,72,72,72h368c39.8,0,72-32.2,72-72
	C512,404.1,485.8,374.6,451.4,369.1z M192,256c17.8,0,32,14.2,32,32s-14.2,32-32,32s-32-14.2-32-32S174.3,256,192,256z M351.5,395
	c-11.4,27.9-59.4,53-95.5,53c-37,0-85-25.1-95.5-53c-2-5.2,2-11,7.8-11h175.5C349.5,384,353.5,389.8,351.5,395z M320,320
	c-17.8,0-32-14.2-32-32s14.2-32,32-32s32,14.2,32,32S337.8,320,320,320z"/>
</svg>
