<?xml version="1.0" encoding="utf-8"?>
<!-- Generator: Adobe Illustrator 26.0.3, SVG Export Plug-In . SVG Version: 6.00 Build 0)  -->
<svg version="1.1" id="Layer_1" xmlns="http://www.w3.org/2000/svg" xmlns:xlink="http://www.w3.org/1999/xlink" x="0px" y="0px"
	 viewBox="0 0 512 512" style="enable-background:new 0 0 512 512;" xml:space="preserve">
<style type="text/css">
	.st0{fill:#E63947;}
</style>
<path class="st0" d="M416,400v64c0,26.5-21.5,48-48,48h-48v-48c0-8.8-7.2-16-16-16s-16,7.2-16,16v48h-64v-48c0-8.8-7.2-16-16-16
	s-16,7.2-16,16v48h-48c-26.5,0-48-21.5-48-48v-64c0-0.4,0-0.7,0-1.1C37.5,357.8,0,294.7,0,224C0,100.3,114.6,0,256,0
	s256,100.3,256,224c0,70.7-37.5,133.8-96.9,174.9C415.1,399.3,416,399.6,416,400L416,400z M160,192c-35.3,0-64,28.7-64,64
	s28.7,64,64,64s64-28.7,64-64S195.3,192,160,192z M352,320c35.3,0,64-28.7,64-64s-28.7-64-64-64s-64,28.7-64,64S316.7,320,352,320z"
	/>
</svg>
