<?xml version="1.0" encoding="utf-8"?>
<!-- Generator: Adobe Illustrator 26.0.3, SVG Export Plug-In . SVG Version: 6.00 Build 0)  -->
<svg version="1.1" id="Layer_1" xmlns="http://www.w3.org/2000/svg" xmlns:xlink="http://www.w3.org/1999/xlink" x="0px" y="0px"
	 viewBox="0 0 448 512" style="enable-background:new 0 0 448 512;" xml:space="preserve">
<style type="text/css">
	.st0{fill:#E63947;}
</style>
<path class="st0" d="M377.7,338.8l37.1-92.9c4.1-10.5-3.6-21.9-15.8-21.9h-57.5c6.9-14.8,10.4-31,10.4-48c0-4.1-0.8-8.1-1.2-12.1
	c39.9-8.8,65.2-21.6,65.2-35.9c0-16.1-31.8-30.3-80.3-39c-11.9-43.9-30.8-89-58.3-89C267,0,257.8,4.5,250,10.5
	c-15.2,11.9-36.8,11.9-52,0C190.3,4.5,181.1,0,170.7,0c-27.5,0-46.3,45.2-58.2,89C63.8,97.7,32,111.9,32,128
	c0,14.3,25.3,27.1,65.2,35.9c-0.4,4-1.2,8-1.2,12.1c0,17,3.5,33.2,9.5,48H48c-11.3,0-19.1,11.4-14.9,21.9l37.1,92.9
	C27.9,370.4,0,420.4,0,477.3C0,496.5,15.5,512,34.7,512h378.6c19.2,0,34.7-15.5,34.7-34.7C448,420.4,420.1,370.4,377.7,338.8z
	 M176,479.1L128,288l64,32l16,32L176,479.1z M271.1,479.1L240,352l16-32l64-32L271.1,479.1z M320,186c0,21-17.2,38-38.4,38h-12.3
	c-16.5,0-30.3-10.4-35.6-25c-1.5-4.1-5.2-7-9.6-7s-8.1,2.9-9.6,7c-5.4,14.6-19.2,25-35.6,25h-12.3c-21.3,0-38.5-17-38.5-38v-16.5
	c28.3,4.1,60.1,6.5,96,6.5s67.7-2.4,96-6.5V186z"/>
</svg>
