<?xml version="1.0" encoding="utf-8"?>
<!-- Generator: Adobe Illustrator 26.0.3, SVG Export Plug-In . SVG Version: 6.00 Build 0)  -->
<svg version="1.1" id="Layer_2_00000152246598196599169060000003374483637938089899_"
	 xmlns="http://www.w3.org/2000/svg" xmlns:xlink="http://www.w3.org/1999/xlink" x="0px" y="0px" viewBox="0 0 413.6 412.7"
	 style="enable-background:new 0 0 413.6 412.7;" xml:space="preserve">
<style type="text/css">
	.st0{fill:#E63947;}
	.st1{fill:#FFFFFF;}
	.st2{fill:#231F20;}
	.st3{fill:none;stroke:#231F20;stroke-width:10;stroke-miterlimit:10;}
</style>
<circle class="st0" cx="207.1" cy="206.1" r="134.5"/>
<path class="st0" d="M126,48.7c3.5-6.5,2.7-14.2-1.7-18.7c-6.3-6.5-16.3-2.9-18.7-2.1c-1.7,0.6-9.3,3.3-11.7,10.4
	c-0.2,0.7-2.2,6.6,0.8,10.4c0.9,1.1,2.2,1.8,5,3.3s4.1,1.7,7.1,3.3c1.4,0.8,2.8,1.6,4.2,2.5"/>
<rect x="120.5" y="47.6" transform="matrix(0.8469 -0.5317 0.5317 0.8469 -17.7971 79.5583)" class="st0" width="17.5" height="46.2"/>
<path class="st0" d="M217,29.1c6.4-3.7,9.9-10.5,8.6-16.7c-1.8-8.8-12.3-11.2-14.7-11.8c-1.7-0.4-9.6-2.2-15.4,2.6
	c-0.6,0.5-5.3,4.4-4.9,9.2c0.1,1.4,0.9,2.8,2.4,5.5s2.5,3.6,4.2,6.6c0.8,1.4,1.5,2.8,2.2,4.3"/>
<rect x="184.9" y="40.8" transform="matrix(1.919872e-03 -1 1 1.919872e-03 158.0595 257.4943)" class="st0" width="46.2" height="17.5"/>
<path class="st0" d="M304.9,57.8c7.4,0,13.8-4.2,15.8-10.2c2.8-8.6-5.1-15.9-6.9-17.5c-1.3-1.2-7.2-6.6-14.6-5.4
	c-0.8,0.1-6.9,1.2-8.8,5.6c-0.6,1.3-0.6,2.8-0.6,6s0.4,4.4,0.4,7.8c0,1.6-0.1,3.2-0.3,4.8"/>
<rect x="263.9" y="62.3" transform="matrix(0.4997 -0.8662 0.8662 0.4997 82.0527 284.1074)" class="st0" width="46.2" height="17.5"/>
<path class="st0" d="M365.9,128.4c6.2,4,13.9,3.9,18.8-0.1c7-5.7,4.3-16.1,3.7-18.5c-0.5-1.7-2.5-9.5-9.4-12.5
	c-0.7-0.3-6.4-2.7-10.4,0c-1.2,0.8-2,2.1-3.8,4.7s-2.1,3.9-3.9,6.8c-0.9,1.4-1.8,2.7-2.8,3.9"/>
<rect x="320.5" y="121" transform="matrix(0.8891 -0.4577 0.4577 0.8891 -21.2962 171.6671)" class="st0" width="46.2" height="17.5"/>
<path class="st0" d="M384.6,217.4c3.7,6.4,10.6,9.8,16.8,8.5c8.8-1.9,11.1-12.4,11.6-14.8c0.4-1.7,2.1-9.6-2.7-15.4
	c-0.5-0.6-4.5-5.3-9.3-4.8c-1.4,0.1-2.8,0.9-5.5,2.5s-3.6,2.5-6.6,4.2c-1.4,0.8-2.8,1.6-4.3,2.2"/>
<rect x="341.1" y="199.8" transform="matrix(1 -3.665183e-03 3.665183e-03 1 -0.7619 1.336)" class="st0" width="46.2" height="17.5"/>
<path class="st0" d="M355.2,304.2c-0.2,7.4,3.9,13.9,9.9,16c8.5,3,16-4.7,17.7-6.5c1.2-1.3,6.8-7.1,5.8-14.5c-0.1-0.8-1-6.9-5.4-8.9
	c-1.3-0.6-2.8-0.6-6-0.8s-4.4,0.3-7.8,0.2c-1.6,0-3.2-0.2-4.8-0.4"/>
<rect x="333.7" y="262.9" transform="matrix(0.5195 -0.8545 0.8545 0.5195 -79.7933 430.0029)" class="st0" width="17.5" height="46.2"/>
<path class="st0" d="M287.1,364.4c-3.9,6.3-3.5,14,0.6,18.8c5.9,6.8,16.2,3.8,18.6,3.1c1.7-0.5,9.4-2.7,12.2-9.7
	c0.3-0.7,2.5-6.5-0.2-10.4c-0.8-1.1-2.1-2-4.8-3.6s-4-2-6.9-3.7c-1.4-0.8-2.7-1.7-4-2.7"/>
<rect x="276.3" y="319.1" transform="matrix(0.8759 -0.4825 0.4825 0.8759 -129.747 180.0263)" class="st0" width="17.5" height="46.2"/>
<path class="st0" d="M200.1,383.8c-6.4,3.8-9.6,10.8-8.2,16.9c2.1,8.8,12.6,10.9,15,11.4c1.7,0.4,9.6,2,15.4-2.9
	c0.6-0.5,5.2-4.6,4.6-9.4c-0.2-1.4-1-2.7-2.6-5.4s-2.6-3.6-4.4-6.5c-0.8-1.4-1.6-2.8-2.3-4.3"/>
<rect x="199.9" y="340.1" transform="matrix(0.9998 -2.024444e-02 2.024444e-02 0.9998 -7.3101 4.2979)" class="st0" width="17.5" height="46.2"/>
<path class="st0" d="M55.6,112.1c-0.2-7.4-4.7-13.7-10.8-15.4c-8.7-2.5-15.7,5.6-17.3,7.5c-1.2,1.3-6.4,7.5-4.9,14.8
	c0.1,0.8,1.4,6.8,5.9,8.6c1.3,0.5,2.9,0.5,6,0.4s4.4-0.5,7.8-0.7c1.6,0,3.2,0,4.8,0.1"/>
<rect x="61.7" y="106.4" transform="matrix(0.4692 -0.8831 0.8831 0.4692 -76.9956 130.9543)" class="st0" width="17.5" height="46.2"/>
<path class="st0" d="M29.3,199.4c-3.6-6.5-10.5-10-16.7-8.8c-8.9,1.8-11.3,12.2-11.9,14.6c-0.4,1.7-2.3,9.6,2.4,15.4
	c0.5,0.6,4.4,5.4,9.2,4.9c1.4-0.1,2.8-0.9,5.5-2.4s3.7-2.5,6.6-4.1c1.4-0.8,2.9-1.5,4.4-2.2"/>
<rect x="41.9" y="185.5" transform="matrix(1.186797e-02 -0.9999 0.9999 1.186797e-02 -158.6044 256.7307)" class="st0" width="17.5" height="46.2"/>
<path class="st0" d="M50.5,290.3c-6.4-3.8-14-3.4-18.8,0.8c-6.8,6-3.7,16.2-3,18.6c0.5,1.7,2.8,9.4,9.8,12.1
	c0.7,0.3,6.5,2.5,10.4-0.3c1.1-0.8,2-2.1,3.6-4.8s1.9-4,3.7-6.9c0.8-1.4,1.7-2.7,2.7-4"/>
<rect x="50.6" y="279.4" transform="matrix(0.8716 -0.4903 0.4903 0.8716 -131.8044 73.1301)" class="st0" width="46.2" height="17.5"/>
<path class="st0" d="M112.1,355.4c-7.4-0.1-13.9,4-15.9,10c-2.9,8.5,4.9,15.9,6.7,17.6c1.3,1.2,7.1,6.8,14.6,5.6
	c0.8-0.1,6.9-1.1,8.9-5.5c0.6-1.3,0.6-2.8,0.7-6s-0.3-4.4-0.2-7.8c0-1.6,0.1-3.2,0.3-4.8"/>
<rect x="107.2" y="333.8" transform="matrix(0.5125 -0.8587 0.8587 0.5125 -230.5983 278.8451)" class="st0" width="46.2" height="17.5"/>
<path class="st0" d="M170.7,50.8c2.9-3.2,3.6-7.6,1.8-10.8c-2.6-4.6-8.8-4-10.2-3.9c-1,0.1-5.7,0.5-8.1,4.1c-0.2,0.4-2.2,3.4-1.1,6
	c0.6,1,1.4,1.9,2.3,2.6c1.4,1.2,2,1.6,3.5,2.9c0.7,0.6,1.4,1.3,2,2"/>
<rect x="164.3" y="50.3" transform="matrix(0.9535 -0.3014 0.3014 0.9535 -11.3069 53.9907)" class="st0" width="10.1" height="26.8"/>
<path class="st0" d="M255.1,53.9c4.2-1,7.2-4.3,7.4-8c0.3-5.2-5.1-8.2-6.4-8.9c-0.9-0.5-5-2.7-9-1c-0.4,0.2-3.7,1.7-4.2,4.4
	c0,1.2,0.1,2.3,0.5,3.5c0.4,1.8,0.8,2.4,1.3,4.3c0.3,1.2,0.4,2.2,0.5,2.8"/>
<rect x="233.5" y="58.9" transform="matrix(0.2716 -0.9624 0.9624 0.2716 118.3398 284.2101)" class="st0" width="26.8" height="10.2"/>
<path class="st0" d="M324.5,98.6c4.1,1.2,8.4-0.2,10.4-3.2c2.9-4.3-0.4-9.7-1.1-10.9c-0.5-0.9-3-4.8-7.3-5.3c-0.4,0-4-0.4-5.8,1.7
	c-0.6,1-1.1,2.1-1.3,3.2c-0.5,1.8-0.5,2.5-1,4.4c-0.3,0.9-0.6,1.8-0.9,2.7"/>
<rect x="299" y="98.1" transform="matrix(0.7162 -0.6979 0.6979 0.7162 16.6343 247.3066)" class="st0" width="26.8" height="10.2"/>
<path class="st0" d="M362.4,171.3c3.1,3,7.5,3.9,10.7,2.1c4.6-2.4,4.3-8.6,4.2-10.1c-0.1-1-0.3-5.7-3.9-8.2
	c-0.4-0.2-3.3-2.3-5.9-1.2c-1,0.6-1.9,1.3-2.7,2.2c-1.3,1.3-1.6,2-3,3.4c-0.7,0.7-1.4,1.3-2.1,1.9"/>
<rect x="336.2" y="164.4" transform="matrix(0.9626 -0.2709 0.2709 0.9626 -32.8461 101.0546)" class="st0" width="26.8" height="10.1"/>
<path class="st0" d="M359,255.3c1,4.2,4.3,7.2,7.9,7.5c5.2,0.4,8.2-5,8.9-6.3c0.5-0.9,2.8-5,1-9c-0.2-0.4-1.6-3.7-4.4-4.2
	c-1.2-0.1-2.3,0.1-3.5,0.5c-1.8,0.4-2.4,0.8-4.4,1.3c-0.9,0.2-1.8,0.4-2.8,0.5"/>
<rect x="344" y="233.6" transform="matrix(0.281 -0.9597 0.9597 0.281 13.888 512.5808)" class="st0" width="10.1" height="26.8"/>
<path class="st0" d="M315.7,323c-1.1,4.2,0.4,8.4,3.5,10.3c4.4,2.8,9.6-0.6,10.8-1.4c0.9-0.6,4.8-3.1,5.1-7.5c0-0.4,0.3-4-1.9-5.8
	c-1-0.6-2.1-1-3.3-1.2c-1.8-0.5-2.5-0.4-4.5-0.9c-0.9-0.2-1.8-0.5-2.7-0.8"/>
<rect x="305.8" y="297.6" transform="matrix(0.6969 -0.7172 0.7172 0.6969 -128.8351 317.2001)" class="st0" width="10.1" height="26.8"/>
<path class="st0" d="M244.7,361.3c-3,3-3.9,7.4-2.2,10.7c2.4,4.6,8.6,4.4,10.1,4.3c1,0,5.7-0.3,8.2-3.8c0.2-0.4,2.3-3.3,1.3-5.9
	c-0.6-1-1.3-1.9-2.2-2.7c-1.3-1.3-2-1.6-3.4-3c-0.9-0.9-1.5-1.6-1.9-2.1"/>
<rect x="241.9" y="332.8" transform="matrix(0.9627 -0.2707 0.2707 0.9627 -84.4825 79.7879)" class="st0" width="10.1" height="26.7"/>
<path class="st0" d="M97.8,89.7c0.8-4.2-0.9-8.3-4.1-10.1c-4.6-2.6-9.6,1.1-10.8,2c-0.8,0.6-4.6,3.4-4.7,7.7c0,0.4-0.1,4,2.2,5.6
	c1,0.5,2.2,0.9,3.3,1c1.8,0.4,2.5,0.3,4.5,0.7c1.2,0.2,2.1,0.5,2.7,0.7"/>
<rect x="98.2" y="88" transform="matrix(0.6571 -0.7538 0.7538 0.6571 -41.0259 112.6396)" class="st0" width="10.2" height="26.8"/>
<path class="st0" d="M53.7,161.1c-1.2-4.1-4.6-7-8.3-7.1c-5.2-0.2-8,5.4-8.7,6.7c-0.5,0.9-2.5,5.1-0.7,9c0.2,0.4,1.8,3.6,4.5,4
	c1.2,0,2.3-0.2,3.4-0.6c1.8-0.5,2.4-0.9,4.3-1.5c0.9-0.3,1.8-0.5,2.7-0.6"/>
<rect x="58.9" y="155.5" transform="matrix(0.2389 -0.9711 0.9711 0.2389 -115.3372 190.7074)" class="st0" width="10.1" height="26.8"/>
<path class="st0" d="M53,246.9c-3.2-2.9-7.6-3.5-10.8-1.7c-4.5,2.6-3.9,8.8-3.8,10.3c0.1,1,0.6,5.7,4.2,8c0.4,0.2,3.4,2.1,6,1
	c1-0.6,1.9-1.4,2.6-2.4c1.2-1.4,1.5-2,2.8-3.5c0.6-0.7,1.3-1.4,2-2"/>
<rect x="52.4" y="243.6" transform="matrix(0.9507 -0.3102 0.3102 0.9507 -73.8875 32.6757)" class="st0" width="26.8" height="10.1"/>
<path class="st0" d="M92.8,317.5c-4.1-1.2-8.4,0.2-10.4,3.3c-2.9,4.4,0.4,9.6,1.2,10.9c0.5,0.9,3,4.8,7.4,5.3c0.4,0,4,0.4,5.8-1.8
	c0.6-1,1-2.1,1.2-3.2c0.5-1.8,0.5-2.5,1-4.4c0.2-0.9,0.5-1.8,0.9-2.7"/>
<rect x="91.5" y="307.8" transform="matrix(0.7108 -0.7034 0.7034 0.7108 -189.7049 164.2524)" class="st0" width="26.8" height="10.1"/>
<path class="st0" d="M161.8,358.4c-4.1,1.2-7,4.6-7.1,8.3c-0.1,5.2,5.5,8,6.8,8.6c0.9,0.5,5.1,2.5,9,0.6c0.4-0.2,3.6-1.8,4-4.6
	c0-1.2-0.2-2.3-0.6-3.4c-0.5-1.8-0.9-2.4-1.5-4.3c-0.3-0.9-0.5-1.8-0.7-2.7"/>
<rect x="156.2" y="343" transform="matrix(0.2314 -0.9729 0.9729 0.2314 -208.2568 432.5593)" class="st0" width="26.8" height="10.1"/>
<ellipse transform="matrix(0.3163 -0.9487 0.9487 0.3163 21.975 353.1598)" class="st1" cx="256" cy="161.3" rx="31.8" ry="31.9"/>
<circle class="st2" cx="256" cy="161.3" r="19.5"/>
<ellipse transform="matrix(0.3163 -0.9487 0.9487 0.3163 16.104 351.3647)" class="st1" cx="251.8" cy="164.5" rx="6.2" ry="6.2"/>
<circle class="st1" cx="156" cy="163.8" r="31.9"/>
<circle class="st2" cx="156" cy="163.8" r="19.5"/>
<circle class="st1" cx="160" cy="167" r="6.2"/>
<path class="st3" d="M149.6,275.5c4.9-14.4,24.2-25.6,46.1-27.8c29-2.9,60.7,10.2,62.4,30.8"/>
<path class="st2" d="M154.3,277c-1.6,2-4.4,2.7-6.5,1.6c-1.8-0.9-2.9-2.8-2.9-4.8"/>
<path class="st2" d="M253.1,278.8c1.1,1.8,3.2,2.8,5.3,2.6c2-0.2,3.8-1.5,4.6-3.4"/>
</svg>
